# xmcd
#
# Track frame offsets: 
#        150
#        17777
#        38654
#        55312
#        71904
#        90851
#        107196
#        126931
#        148378
#        170653
#
# Disc length: 2481 seconds
#
# Revision: 0
# Processed by: cddbd v1.5.2PL0 Copyright (c) Steve Scherf et al.
# Submitted via: ExactAudioCopy v1.0b3
#
DISCID=9009af0a
DTITLE=The Mellow Moods - Tell Love Hello
DYEAR=2016
DGENRE=Soul
TTITLE0=Tell Love Hello
TTITLE1=Right On The Tip Of My Tongue
TTITLE2=Tell Him That I Love Him
TTITLE3=That's How Heartaches Are Made
TTITLE4=Hello Stranger
TTITLE5=Stop Taking My Love For Granted
TTITLE6=Selfish One
TTITLE7=Memories (feat. Art Austin)
TTITLE8=Hey Love
TTITLE9=The One Who Really Loves You
EXTD=
EXTT0=
EXTT1=
EXTT2=
EXTT3=
EXTT4=
EXTT5=
EXTT6=
EXTT7=
EXTT8=
EXTT9=
PLAYORDER=
